Coordinates
version=1
nRows=13
nColumns=22
inDegrees=yes

Units are S.I. units (second, meters, Newtons, ...)
If the header above contains a line with 'inDegrees', this indicates whether rotational values are in degrees (yes) or radians (no).

endheader
time	pelvis_tilt	pelvis_list	pelvis_rotation	pelvis_tx	pelvis_ty	pelvis_tz	hip_flexion_r	hip_adduction_r	hip_rotation_r	knee_angle_r	ankle_angle_r	subtalar_angle_r	hip_flexion_l	hip_adduction_l	hip_rotation_l	knee_angle_l	ankle_angle_l	subtalar_angle_l	lumbar_extension	lumbar_bending	lumbar_rotation
      0.01000000	      1.19195835	     -1.65121607	     -0.82606039	     -1.20230460	      1.08179323	     -0.52660691	     -2.09745682	      1.28388711	     -2.66177556	     -9.11103452	     10.60404817	     -1.79023871	     -0.88923214	     -1.16921030	     -5.91248913	    -12.17184100	     12.82978423	     -3.20279077	     -4.14434982	     -1.13299762	     -5.35135509
      0.02000000	      1.18107278	     -1.65962339	     -0.82661950	     -1.20218160	      1.08176706	     -0.52660631	     -2.11408776	      1.29163088	     -2.67672362	     -9.07180847	     10.60430843	     -1.79052546	     -0.89185987	     -1.17792994	     -5.92098589	    -12.16118339	     12.83217979	     -3.20740834	     -4.12404066	     -1.13853583	     -5.32191469
      0.03000000	      1.16944220	     -1.67107717	     -0.82822221	     -1.20204714	      1.08174070	     -0.52660790	     -2.13349631	      1.30257691	     -2.68825429	     -9.02715737	     10.60150862	     -1.78856197	     -0.89417147	     -1.18907627	     -5.92495628	    -12.15113822	     12.83559123	     -3.21257021	     -4.10367609	     -1.14216317	     -5.28998094
      0.04000000	      1.15878958	     -1.68500845	     -0.82880008	     -1.20191229	      1.08171722	     -0.52661443	     -2.15518282	      1.31628046	     -2.69629007	     -8.98066223	     10.59561575	     -1.78453017	     -0.89464423	     -1.20247672	     -5.92596997	    -12.14585124	     12.84055457	     -3.21850119	     -4.08695701	     -1.14438733	     -5.25611959
      0.05000000	      1.15709410	     -1.72058432	     -0.83714388	     -1.20179014	      1.08171395	     -0.52661125	     -2.19217633	      1.35397079	     -2.67085970	     -8.92075335	     10.55133006	     -1.76593916	     -0.90278157	     -1.23879378	     -5.93060543	    -12.14522445	     12.86130904	     -3.24105501	     -4.08556697	     -1.12017816	     -5.22354973
      0.06000000	      1.15173686	     -1.72946508	     -0.83569925	     -1.20168827	      1.08170111	     -0.52662639	     -2.20918299	      1.36197918	     -2.68322040	     -8.89061568	     10.55531873	     -1.76222541	     -0.89694406	     -1.24698629	     -5.92918953	    -12.15652668	     12.86319775	     -3.24501919	     -4.08425011	     -1.12926994	     -5.19178282
      0.07000000	      1.14814027	     -1.74161181	     -0.83792505	     -1.20160269	      1.08169481	     -0.52664535	     -2.22678484	      1.37320984	     -2.68862882	     -8.85966191	     10.55132683	     -1.75653572	     -0.88864323	     -1.25789921	     -5.92565240	    -12.17474831	     12.87037145	     -3.25100457	     -4.08853177	     -1.13275232	     -5.15924685
      0.08000000	      1.15283612	     -1.77343399	     -0.84772666	     -1.20154238	      1.08170186	     -0.52665509	     -2.25136282	      1.40582353	     -2.66757797	     -8.82815974	     10.51906927	     -1.73657413	     -0.88310055	     -1.29126940	     -5.93999274	    -12.20370912	     12.90392303	     -3.27238526	     -4.10826970	     -1.11093517	     -5.12818714
      0.09000000	      1.15276775	     -1.78098508	     -0.85131958	     -1.20148768	      1.08170540	     -0.52666917	     -2.25899633	      1.41267435	     -2.66946263	     -8.81971241	     10.51841751	     -1.73294119	     -0.87247748	     -1.29767034	     -5.93255220	    -12.22873350	     12.90382280	     -3.27554189	     -4.12123299	     -1.12124164	     -5.10005503
      0.10000000	      1.15458087	     -1.78998390	     -0.85874596	     -1.20145724	      1.08171060	     -0.52668704	     -2.26267283	      1.42030847	     -2.66675645	     -8.81856541	     10.51328465	     -1.72886895	     -0.85925295	     -1.30554906	     -5.92812539	    -12.26079526	     12.90934460	     -3.28002585	     -4.14052034	     -1.12816450	     -5.07096059
      0.11000000	      1.15714608	     -1.79991871	     -0.86888272	     -1.20143991	      1.08171606	     -0.52670306	     -2.26112509	      1.42895121	     -2.66042055	     -8.82633749	     10.50671235	     -1.72466223	     -0.84587454	     -1.31466836	     -5.92886030	    -12.29425911	     12.91812897	     -3.28530047	     -4.16251119	     -1.13372938	     -5.04193344
      0.12000000	      1.15941761	     -1.80970602	     -0.88232032	     -1.20143143	      1.08172095	     -0.52672090	     -2.25438186	      1.43691065	     -2.65177367	     -8.84173687	     10.50107216	     -1.72064116	     -0.83300594	     -1.32358956	     -5.93426089	    -12.32643019	     12.92774014	     -3.29084290	     -4.18462499	     -1.13890776	     -5.01233015
      0.13000000	      1.16041565	     -1.81852727	     -0.89913898	     -1.20143034	      1.08172292	     -0.52674209	     -2.24171269	      1.44312622	     -2.64043180	     -8.86434381	     10.49763841	     -1.71675003	     -0.82051054	     -1.33121434	     -5.94574692	    -12.35573553	     12.93754790	     -3.29686226	     -4.20526317	     -1.14425131	     -4.98060872
